<svg id="Grupo_6868" data-name="Grupo 6868" xmlns="http://www.w3.org/2000/svg" width="218" height="66.439" viewBox="0 0 218 66.439">
  <g id="Grupo_1" data-name="Grupo 1" transform="translate(208.699 14.936)">
    <path id="Trazado_1" data-name="Trazado 1" d="M-.6-.422V.9H.3C.861.9,1.258.75,1.258.291c0-.583-.342-.737-1.006-.737-.3,0-.562,0-.852.023M2.3,3.514H1.239l-.7-1.64C.46,1.72.46,1.7.221,1.7H-.6V3.514h-.9v-4.7c.715-.049,1.219-.072,1.724-.072,1.018,0,1.94.307,1.94,1.479a1.313,1.313,0,0,1-.8,1.245c.378.67.906,1.994.929,2.051M-3.713,1.188a3.75,3.75,0,0,0,3.86,3.6,3.751,3.751,0,0,0,3.872-3.6,3.736,3.736,0,0,0-3.872-3.6,3.734,3.734,0,0,0-3.86,3.6m-.767,0A4.494,4.494,0,0,1,.171-3.153a4.511,4.511,0,0,1,4.65,4.341A4.514,4.514,0,0,1,.171,5.5,4.5,4.5,0,0,1-4.48,1.188" transform="translate(4.48 3.153)" fill="#1d172e"/>
  </g>
  <path id="Trazado_2" data-name="Trazado 2" d="M229.533-119.667h-5.668v29.1h5.668Z" transform="translate(-68.376 126.608)" fill="#1d172e"/>
  <g id="Grupo_2" data-name="Grupo 2" transform="translate(132.927 14.936)">
    <path id="Trazado_3" data-name="Trazado 3" d="M-1.672-3.281c-2.39,0-3.688-.566-5.021-2.468h-.082V4.543h-5.708v-28.6h4.82l.364,2.39h.081A6.27,6.27,0,0,1-1.469-24.5c6.2,0,8.623,4.858,8.623,10.408,0,5.791-2.39,10.81-8.825,10.81M-2.887-20.044c-2.428,0-4.008.93-4.008,3.482v4.492c0,2.8.892,4.577,3.928,4.577,3.806,0,4.333-3.4,4.333-6.518,0-3.2-.448-6.032-4.252-6.032" transform="translate(12.483 24.498)" fill="#1d172e"/>
  </g>
  <g id="Grupo_3" data-name="Grupo 3" transform="translate(183.76 15.382)">
    <path id="Trazado_4" data-name="Trazado 4" d="M-2.06-3.268c-2.674,6.762-3.968,8.3-8.909,8.3a25.674,25.674,0,0,1-3.079-.2V.094a19.177,19.177,0,0,0,2.269.12c2.184,0,2.713-.566,3.442-2.39L-7.4-4.481-15.381-24.4h6.192l4.7,14.049h.081L.164-24.4H6.278Z" transform="translate(15.381 24.403)" fill="#1d172e"/>
  </g>
  <g id="Grupo_4" data-name="Grupo 4" transform="translate(164.081 14.936)">
    <path id="Trazado_5" data-name="Trazado 5" d="M-1.985-2.442A7.9,7.9,0,0,1-6.6-.824,2.51,2.51,0,0,1-9.274-3.576C-9.274-7.26-4.659-7.3-1.985-7.3Zm5.585.2v-.879s0-.006,0-.01v-6.92c0-5.83-2.228-8.181-8.18-8.181a20.533,20.533,0,0,0-9.757,2.428l1.78,3.89A15.531,15.531,0,0,1-5.1-14.021c2.064,0,3,.605,3,2.512v.967c-5.059-.038-12.712.65-12.712,7.373,0,3.927,2.713,6.194,6.561,6.194A10.728,10.728,0,0,0-1.5.621a1.844,1.844,0,0,0,.051.294c.619,1.957,3.985,2.1,6.526,1.957l.206-4.327C4.219-1.489,3.6-1.626,3.6-2.244" transform="translate(14.821 18.234)" fill="#1d172e"/>
  </g>
  <g id="Grupo_5" data-name="Grupo 5" transform="translate(63.67 14.936)">
    <path id="Trazado_6" data-name="Trazado 6" d="M-1.615-3.281c-7.044,0-10.447-4.294-10.447-10.608,0-5.91,3.037-10.61,10.447-10.61,6.844,0,10.4,4.05,10.4,10.61,0,6.276-3.32,10.608-10.4,10.608m0-16.724c-3.564,0-4.66,2.148-4.66,6.116,0,4.049,1.135,6.276,4.7,6.276,3.483,0,4.615-2.186,4.615-6.276C3.039-17.857,1.945-20-1.615-20" transform="translate(12.062 24.498)" fill="#1d172e"/>
  </g>
  <g id="Grupo_6" data-name="Grupo 6" transform="translate(45.61 8.701)">
    <path id="Trazado_7" data-name="Trazado 7" d="M0,0V5.06H7.61V27.341H13.6V5.06h7.609V0Z" fill="#1d172e"/>
  </g>
  <g id="Grupo_7" data-name="Grupo 7" transform="translate(85.656 9.998)">
    <path id="Trazado_8" data-name="Trazado 8" d="M-1.888-3.3c-2.916.072-3.2-.3-3.217-2.036,0-.09,0-.184,0-.281v-9.073h4.7v-4.575h-4.7V-24.65h-5.63v5.384H-14.1v4.575h3.321v9.678c0,4.9,1.338,6.438,6.845,6.438A34.993,34.993,0,0,0-.409,1.141V-3.4c-.424.04-.772.081-1.478.1" transform="translate(14.095 24.65)" fill="#1d172e"/>
  </g>
  <path id="Trazado_9" data-name="Trazado 9" d="M193.24-119.667h-5.669v29.1h5.669Z" transform="translate(-63.515 126.608)" fill="#1d172e"/>
  <g id="Grupo_8" data-name="Grupo 8" transform="translate(101.665 14.936)">
    <path id="Trazado_10" data-name="Trazado 10" d="M-1.985-2.442A7.9,7.9,0,0,1-6.6-.824,2.51,2.51,0,0,1-9.274-3.576C-9.274-7.26-4.659-7.3-1.985-7.3Zm5.585.2v-.879s0-.006,0-.01v-6.92c0-5.83-2.228-8.181-8.18-8.181a20.533,20.533,0,0,0-9.757,2.428l1.78,3.89A15.531,15.531,0,0,1-5.1-14.021c2.063,0,3,.605,3,2.512v.967c-5.059-.038-12.711.65-12.711,7.373,0,3.927,2.713,6.194,6.56,6.194A10.728,10.728,0,0,0-1.5.621a1.844,1.844,0,0,0,.051.294c.618,1.957,3.985,2.1,6.526,1.957l.206-4.327C4.219-1.489,3.6-1.626,3.6-2.244" transform="translate(14.82 18.234)" fill="#1d172e"/>
  </g>
  <g id="Grupo_9" data-name="Grupo 9">
    <path id="Trazado_11" data-name="Trazado 11" d="M-1.807-1.2a.876.876,0,0,0,0-1.657l-10.25-5.919c-.79-.456-1.436-.082-1.436.829V3.889c0,.911.646,1.284,1.436.828Z" transform="translate(13.493 8.971)" fill="#e3002b"/>
  </g>
  <g id="Grupo_10" data-name="Grupo 10" transform="translate(0 15.15)">
    <path id="Trazado_12" data-name="Trazado 12" d="M-1.807-1.2a.876.876,0,0,0,0-1.657l-10.25-5.919c-.79-.456-1.436-.082-1.436.829V3.889c0,.911.646,1.284,1.436.828Z" transform="translate(13.493 8.971)" fill="#e3002b"/>
  </g>
  <g id="Grupo_11" data-name="Grupo 11" transform="translate(0 30.301)">
    <path id="Trazado_13" data-name="Trazado 13" d="M-1.807-1.2a.876.876,0,0,0,0-1.657l-10.25-5.918c-.79-.456-1.436-.083-1.436.828V3.889c0,.911.646,1.284,1.436.829Z" transform="translate(13.493 8.971)" fill="#e3002b"/>
  </g>
  <g id="Grupo_12" data-name="Grupo 12" transform="translate(13.121 7.575)">
    <path id="Trazado_14" data-name="Trazado 14" d="M0-1.988C0-1.076.645-.7,1.434-1.16L11.685-7.078a.876.876,0,0,0,0-1.657L1.434-14.653C.645-15.109,0-14.736,0-13.824Z" transform="translate(0 14.848)" fill="#e3002b"/>
  </g>
  <g id="Grupo_13" data-name="Grupo 13" transform="translate(13.121 22.725)">
    <path id="Trazado_15" data-name="Trazado 15" d="M0-1.988C0-1.077.645-.7,1.434-1.16L11.685-7.077a.876.876,0,0,0,0-1.658L1.434-14.653C.645-15.109,0-14.736,0-13.824Z" transform="translate(0 14.848)" fill="#e3002b"/>
  </g>
  <g id="Grupo_14" data-name="Grupo 14" transform="translate(26.242 15.151)">
    <path id="Trazado_16" data-name="Trazado 16" d="M0-1.988C0-1.076.646-.7,1.435-1.16l10.25-5.919a.876.876,0,0,0,0-1.657L1.435-14.653C.646-15.109,0-14.736,0-13.824Z" transform="translate(0 14.848)" fill="#e3002b"/>
  </g>
  <g id="Grupo_15" data-name="Grupo 15" transform="translate(98.214 56.561)">
    <path id="Trazado_17" data-name="Trazado 17" d="M0,0H5.7V1.181H1.47V4.259H5.4V5.414H1.47v3.1H6.018v1.2H0Z" fill="#e3002b"/>
  </g>
  <g id="Grupo_16" data-name="Grupo 16" transform="translate(106.992 56.561)">
    <path id="Trazado_18" data-name="Trazado 18" d="M0,0H1.992L5.056,8.629,8.489,0h1.925V9.713H8.93V3.737l.055-1.731L5.963,9.713H4.052L1.374,1.95l.1,1.8V9.713H0Z" fill="#e3002b"/>
  </g>
  <g id="Grupo_17" data-name="Grupo 17" transform="translate(120.881 56.562)">
    <path id="Trazado_19" data-name="Trazado 19" d="M-.418-.809H-1.641V-4.862H-.089C1.367-4.862,2-4.161,2-2.827,2-1.468,1.093-.809-.418-.809M.212-6.042H-3.125V3.67h1.484V.387H-.5C2.233.387,3.538-1.1,3.538-2.883A2.991,2.991,0,0,0,.212-6.042" transform="translate(3.125 6.042)" fill="#e3002b"/>
  </g>
  <g id="Grupo_18" data-name="Grupo 18" transform="translate(129.892 56.562)">
    <path id="Trazado_20" data-name="Trazado 20" d="M-.418-.752C1.051-.752,2-1.246,2-2.607,2-3.94,1.327-4.435-.09-4.435H-1.641V-.752Zm2.308,3.3L.3.334A5,5,0,0,1-.5.389h-1.14V4.1H-3.125V-5.615H.213c1.952,0,3.326.921,3.326,2.939A2.745,2.745,0,0,1,1.78-.024L3.154,1.817A3.431,3.431,0,0,0,5.146,3.109l-.331,1.14a3.94,3.94,0,0,1-2.926-1.7" transform="translate(3.125 5.615)" fill="#e3002b"/>
  </g>
  <g id="Grupo_19" data-name="Grupo 19" transform="translate(140.429 56.561)">
    <path id="Trazado_21" data-name="Trazado 21" d="M0,0H5.7V1.181H1.47V4.259H5.4V5.414H1.47v3.1H6.018v1.2H0Z" fill="#e3002b"/>
  </g>
  <g id="Grupo_20" data-name="Grupo 20" transform="translate(148.437 56.438)">
    <path id="Trazado_22" data-name="Trazado 22" d="M0-1.451l.453-1.14A5.708,5.708,0,0,0,2.83-2.1c1.112,0,2.156-.371,2.156-1.428C4.986-5.709.275-5.173.275-8.388c0-1.662,1.457-2.446,3.05-2.446a5.762,5.762,0,0,1,2.555.522L5.468-9.24a5.943,5.943,0,0,0-2.1-.385c-1.031,0-1.676.4-1.676,1.194,0,1.925,4.768,1.718,4.768,4.823,0,1.937-1.676,2.775-3.6,2.775A5.61,5.61,0,0,1,0-1.451" transform="translate(0 10.834)" fill="#e3002b"/>
  </g>
  <g id="Grupo_21" data-name="Grupo 21" transform="translate(156.46 56.562)">
    <path id="Trazado_23" data-name="Trazado 23" d="M-.943-.8-2.29-4.99-3.814-.8ZM-3.224-5.979h1.965L2.175,3.733H.624L-.56.34H-4.241L-5.56,3.733H-7.043Z" transform="translate(7.043 5.979)" fill="#e3002b"/>
  </g>
  <g id="Grupo_22" data-name="Grupo 22" transform="translate(167.902 56.562)">
    <path id="Trazado_24" data-name="Trazado 24" d="M-.419-.752C1.051-.752,2-1.246,2-2.607,2-3.94,1.326-4.435-.091-4.435H-1.642V-.752Zm2.308,3.3L.3.334A5,5,0,0,1-.5.389H-1.642V4.1H-3.127V-5.615H.212c1.952,0,3.326.921,3.326,2.939A2.744,2.744,0,0,1,1.778-.024L3.153,1.817A3.434,3.434,0,0,0,5.145,3.109l-.331,1.14a3.937,3.937,0,0,1-2.925-1.7" transform="translate(3.127 5.615)" fill="#e3002b"/>
  </g>
  <path id="Trazado_25" data-name="Trazado 25" d="M250.363-62.373h1.47v9.712h-1.47Z" transform="translate(-71.924 118.935)" fill="#e3002b"/>
  <g id="Grupo_23" data-name="Grupo 23" transform="translate(182.176 56.562)">
    <path id="Trazado_26" data-name="Trazado 26" d="M-.943-.8-2.289-4.99-3.813-.8ZM-3.224-5.979h1.966L2.176,3.733H.624L-.56.34H-4.241L-5.56,3.733H-7.043Z" transform="translate(7.043 5.979)" fill="#e3002b"/>
  </g>
  <g id="Grupo_24" data-name="Grupo 24" transform="translate(193.619 56.561)">
    <path id="Trazado_27" data-name="Trazado 27" d="M0,0H1.47V8.49H5.688V9.713H0Z" fill="#e3002b"/>
  </g>
</svg>
